<svg width="244" height="84" viewBox="0 0 244 84" fill="none" xmlns="http://www.w3.org/2000/svg">
<rect x="5" y="5" width="234" height="74" fill="url(#paint0_linear_282_1150)"/>
<rect x="5" y="5" width="234" height="74" stroke="url(#paint1_linear_282_1150)" stroke-width="10"/>
<path d="M57.144 52.872C57.1653 53.1707 57.1227 53.384 57.016 53.512C56.9307 53.6613 56.696 53.7573 56.312 53.8C53.8587 54.12 51.6187 54.0987 49.592 53.736C47.5653 53.3733 45.8373 52.68 44.408 51.656C42.9573 50.6533 41.8267 49.3413 41.016 47.72C40.2267 46.0773 39.832 44.136 39.832 41.896C39.832 40.36 40.0347 38.9947 40.44 37.8C40.8667 36.6053 41.4533 35.56 42.2 34.664C42.9253 33.7893 43.7787 33.064 44.76 32.488C45.7627 31.8907 46.84 31.4213 47.992 31.08C49.144 30.76 50.3493 30.5573 51.608 30.472C52.8667 30.3867 54.1253 30.3973 55.384 30.504C55.6827 30.5467 55.896 30.6213 56.024 30.728C56.1733 30.8347 56.248 31.0373 56.248 31.336L56.216 36.232C56.216 36.5093 56.152 36.7013 56.024 36.808C55.896 36.8933 55.6827 36.9253 55.384 36.904C54.0827 36.84 52.9307 36.8933 51.928 37.064C50.9467 37.2133 50.1253 37.5013 49.464 37.928C48.7813 38.3547 48.2693 38.9413 47.928 39.688C47.5867 40.4347 47.416 41.352 47.416 42.44C47.416 43.3147 47.5547 44.104 47.832 44.808C48.1307 45.4907 48.6107 46.056 49.272 46.504C49.912 46.952 50.7653 47.2613 51.832 47.432C52.8987 47.5813 54.2213 47.5493 55.8 47.336C56.1627 47.2933 56.3973 47.336 56.504 47.464C56.632 47.592 56.7067 47.7733 56.728 48.008L57.144 52.872ZM58.5828 45.16C58.5828 43.7947 58.7748 42.5573 59.1588 41.448C59.5428 40.3173 60.1081 39.3573 60.8548 38.568C61.5801 37.7787 62.4548 37.1707 63.4788 36.744C64.5241 36.3173 65.7081 36.104 67.0308 36.104C68.3321 36.104 69.5054 36.3173 70.5508 36.744C71.5961 37.1707 72.4921 37.7787 73.2388 38.568C73.9641 39.3573 74.5188 40.3173 74.9028 41.448C75.2868 42.5573 75.4788 43.7947 75.4788 45.16C75.4788 46.5253 75.2868 47.7733 74.9028 48.904C74.5188 50.0133 73.9641 50.9627 73.2388 51.752C72.4921 52.5413 71.5961 53.1493 70.5508 53.576C69.5054 54.0027 68.3321 54.216 67.0308 54.216C65.7081 54.216 64.5241 54.0027 63.4788 53.576C62.4548 53.1493 61.5801 52.5413 60.8548 51.752C60.1081 50.9627 59.5428 50.0133 59.1588 48.904C58.7748 47.7733 58.5828 46.5253 58.5828 45.16ZM65.0148 45.16C65.0148 46.0987 65.1854 46.856 65.5268 47.432C65.8681 48.008 66.3694 48.296 67.0308 48.296C67.6921 48.296 68.1934 48.008 68.5348 47.432C68.8761 46.856 69.0468 46.0987 69.0468 45.16C69.0468 44.2213 68.8761 43.464 68.5348 42.888C68.1934 42.312 67.6921 42.024 67.0308 42.024C66.3694 42.024 65.8681 42.312 65.5268 42.888C65.1854 43.464 65.0148 44.2213 65.0148 45.16ZM78.8488 36.712C80.1288 36.5413 81.4728 36.4027 82.8808 36.296C84.3101 36.1893 85.9314 36.1253 87.7448 36.104C88.9181 36.104 89.9208 36.3067 90.7528 36.712C91.6061 37.096 92.3101 37.64 92.8647 38.344C93.3981 39.048 93.7821 39.8693 94.0168 40.808C94.2514 41.7253 94.3581 42.7067 94.3368 43.752L94.0808 52.264C94.0594 52.904 93.9528 53.3413 93.7608 53.576C93.5688 53.832 93.1954 53.96 92.6408 53.96H88.6408C88.0861 53.96 87.7021 53.832 87.4888 53.576C87.2754 53.3413 87.1688 52.904 87.1688 52.264L87.2008 46.088C87.2008 45.4267 87.1901 44.8613 87.1688 44.392C87.1474 43.9013 87.0941 43.496 87.0088 43.176C86.9021 42.8773 86.7421 42.664 86.5288 42.536C86.3368 42.408 86.0594 42.3547 85.6968 42.376C85.4194 42.3973 85.2061 42.4293 85.0568 42.472C84.9288 42.4933 84.7474 42.5467 84.5128 42.632V52.264C84.5128 52.904 84.4061 53.3413 84.1927 53.576C84.0008 53.832 83.6274 53.96 83.0728 53.96H79.1688C78.6141 53.96 78.2408 53.832 78.0488 53.576C77.8568 53.3413 77.7501 52.904 77.7288 52.264L77.4728 38.312C77.4728 38.0133 77.4834 37.768 77.5048 37.576C77.5261 37.384 77.5901 37.224 77.6968 37.096C77.7821 36.9893 77.9208 36.9147 78.1128 36.872C78.3048 36.808 78.5501 36.7547 78.8488 36.712ZM98.7715 42.28H96.8515C96.3182 42.28 95.9662 42.2053 95.7955 42.056C95.6248 41.9067 95.5395 41.5867 95.5395 41.096V37.608C95.5395 37.1173 95.6248 36.7973 95.7955 36.648C95.9662 36.4987 96.3182 36.424 96.8515 36.424H98.7715V32.104C98.7715 31.4853 98.8782 31.0587 99.0915 30.824C99.3048 30.568 99.6888 30.44 100.244 30.44H104.02C104.574 30.44 104.948 30.5573 105.14 30.792C105.353 31.0267 105.46 31.464 105.46 32.104V36.424H107.892C108.425 36.424 108.777 36.4987 108.948 36.648C109.118 36.7973 109.204 37.1173 109.204 37.608V41.096C109.204 41.5867 109.118 41.9067 108.948 42.056C108.777 42.2053 108.425 42.28 107.892 42.28H105.46V46.344C105.46 47.0267 105.609 47.4853 105.908 47.72C106.206 47.9333 106.59 48.04 107.06 48.04C107.294 48.04 107.508 48.0293 107.7 48.008C107.892 47.9653 108.073 47.9227 108.244 47.88C108.67 47.7947 108.884 47.9547 108.884 48.36L109.044 53.256C109.044 53.4907 109.001 53.6507 108.916 53.736C108.83 53.8427 108.67 53.9173 108.436 53.96C107.305 54.1733 106.142 54.28 104.948 54.28C103.838 54.28 102.889 54.1413 102.1 53.864C101.332 53.608 100.702 53.224 100.212 52.712C99.6995 52.2 99.3262 51.5813 99.0915 50.856C98.8782 50.1093 98.7715 49.2773 98.7715 48.36V42.28ZM111.09 38.248C111.069 37.6293 111.165 37.2133 111.378 37C111.613 36.7653 111.997 36.616 112.53 36.552C113.277 36.4667 114.162 36.392 115.186 36.328C116.21 36.2427 117.234 36.1787 118.258 36.136C119.282 36.1147 120.242 36.104 121.138 36.104C122.034 36.104 122.728 36.1253 123.218 36.168C123.56 36.2107 123.773 36.3067 123.858 36.456C123.965 36.6053 124.008 36.8933 123.986 37.32L123.826 41.8C123.784 42.2693 123.666 42.536 123.474 42.6C123.304 42.664 122.973 42.696 122.482 42.696C122.248 42.696 121.96 42.7067 121.618 42.728C121.277 42.728 120.914 42.7387 120.53 42.76C120.125 42.7813 119.72 42.8133 119.314 42.856C118.909 42.8773 118.514 42.8987 118.13 42.92L118.098 52.264C118.098 52.904 117.992 53.3413 117.778 53.576C117.565 53.832 117.181 53.96 116.626 53.96H112.786C112.232 53.96 111.858 53.832 111.666 53.576C111.474 53.3413 111.368 52.904 111.346 52.264L111.09 38.248ZM126.129 39.688C126.129 39.048 126.225 38.6107 126.417 38.376C126.63 38.1413 127.014 38.024 127.569 38.024H131.665C132.22 38.024 132.604 38.152 132.817 38.408C133.03 38.6427 133.137 39.0693 133.137 39.688L133.201 52.264C133.201 52.904 133.094 53.3413 132.881 53.576C132.668 53.832 132.284 53.96 131.729 53.96H127.569C127.014 53.96 126.63 53.832 126.417 53.576C126.225 53.3413 126.129 52.904 126.129 52.264V39.688ZM125.905 33.032C125.905 32.008 126.214 31.1653 126.833 30.504C127.473 29.8213 128.38 29.48 129.553 29.48C130.726 29.48 131.622 29.8213 132.241 30.504C132.881 31.1653 133.201 32.008 133.201 33.032C133.201 34.056 132.881 34.9093 132.241 35.592C131.622 36.2533 130.726 36.584 129.553 36.584C128.38 36.584 127.473 36.2533 126.833 35.592C126.214 34.9093 125.905 34.056 125.905 33.032ZM135.723 31.56C135.723 31.0053 135.808 30.632 135.979 30.44C136.171 30.2267 136.491 30.12 136.939 30.12H140.907C141.376 30.12 141.696 30.2267 141.867 30.44C142.037 30.632 142.123 31.0053 142.123 31.56V36.104C143.573 36.04 144.907 36.2107 146.123 36.616C147.339 37.0213 148.384 37.6187 149.259 38.408C150.133 39.2187 150.816 40.2107 151.307 41.384C151.797 42.5573 152.043 43.88 152.043 45.352C152.043 47.1867 151.755 48.6693 151.179 49.8C150.624 50.9093 149.877 51.7733 148.939 52.392C147.979 53.0107 146.869 53.4267 145.611 53.64C144.352 53.8533 143.029 53.96 141.643 53.96H136.939C136.491 53.96 136.171 53.8533 135.979 53.64C135.808 53.448 135.723 53.0747 135.723 52.52V31.56ZM145.803 45.608C145.803 44.648 145.525 43.88 144.971 43.304C144.416 42.728 143.467 42.44 142.123 42.44V48.008C143.253 48.136 144.149 47.976 144.811 47.528C145.472 47.0587 145.803 46.4187 145.803 45.608ZM168.957 53.8C167.677 53.928 166.322 53.9813 164.893 53.96C163.485 53.9387 161.874 53.9387 160.061 53.96C158.888 53.96 157.885 53.7467 157.053 53.32C156.221 52.8933 155.549 52.328 155.037 51.624C154.504 50.9413 154.12 50.1627 153.885 49.288C153.672 48.4133 153.586 47.528 153.629 46.632L154.045 37.8C154.088 37.16 154.194 36.7227 154.365 36.488C154.557 36.232 154.93 36.104 155.485 36.104H159.485C160.04 36.104 160.434 36.232 160.669 36.488C160.904 36.7227 161 37.16 160.957 37.8L160.605 44.008C160.562 44.84 160.573 45.512 160.637 46.024C160.722 46.5147 160.861 46.888 161.053 47.144C161.224 47.4 161.437 47.56 161.693 47.624C161.97 47.688 162.269 47.72 162.589 47.72L163.421 47.656L163.613 37.8C163.634 37.16 163.741 36.7227 163.933 36.488C164.125 36.232 164.498 36.104 165.053 36.104H169.117C169.672 36.104 170.056 36.232 170.269 36.488C170.482 36.7227 170.578 37.16 170.557 37.8L170.333 52.2C170.333 52.4987 170.312 52.744 170.269 52.936C170.248 53.128 170.194 53.288 170.109 53.416C170.002 53.5227 169.853 53.608 169.661 53.672C169.49 53.736 169.256 53.7787 168.957 53.8ZM175.24 42.28H173.32C172.787 42.28 172.435 42.2053 172.264 42.056C172.094 41.9067 172.008 41.5867 172.008 41.096V37.608C172.008 37.1173 172.094 36.7973 172.264 36.648C172.435 36.4987 172.787 36.424 173.32 36.424H175.24V32.104C175.24 31.4853 175.347 31.0587 175.56 30.824C175.774 30.568 176.158 30.44 176.712 30.44H180.488C181.043 30.44 181.416 30.5573 181.608 30.792C181.822 31.0267 181.928 31.464 181.928 32.104V36.424H184.36C184.894 36.424 185.246 36.4987 185.416 36.648C185.587 36.7973 185.672 37.1173 185.672 37.608V41.096C185.672 41.5867 185.587 41.9067 185.416 42.056C185.246 42.2053 184.894 42.28 184.36 42.28H181.928V46.344C181.928 47.0267 182.078 47.4853 182.376 47.72C182.675 47.9333 183.059 48.04 183.528 48.04C183.763 48.04 183.976 48.0293 184.168 48.008C184.36 47.9653 184.542 47.9227 184.712 47.88C185.139 47.7947 185.352 47.9547 185.352 48.36L185.512 53.256C185.512 53.4907 185.47 53.6507 185.384 53.736C185.299 53.8427 185.139 53.9173 184.904 53.96C183.774 54.1733 182.611 54.28 181.416 54.28C180.307 54.28 179.358 54.1413 178.568 53.864C177.8 53.608 177.171 53.224 176.68 52.712C176.168 52.2 175.795 51.5813 175.56 50.856C175.347 50.1093 175.24 49.2773 175.24 48.36V42.28ZM195.439 36.104C196.804 36.104 198.009 36.3387 199.055 36.808C200.121 37.256 201.017 37.896 201.743 38.728C202.468 39.5813 203.023 40.616 203.407 41.832C203.812 43.048 204.047 44.424 204.111 45.96C204.132 46.3867 204.068 46.6747 203.919 46.824C203.791 46.9733 203.535 47.0693 203.151 47.112L193.295 48.072C193.529 48.5627 193.945 48.936 194.543 49.192C195.161 49.4267 195.855 49.5653 196.623 49.608C197.391 49.6507 198.191 49.5973 199.023 49.448C199.855 49.2773 200.612 49.032 201.295 48.712C201.849 48.456 202.137 48.6373 202.159 49.256L202.351 52.328C202.372 52.584 202.329 52.7867 202.222 52.936C202.137 53.0853 201.945 53.2133 201.647 53.32C200.772 53.64 199.833 53.8747 198.831 54.024C197.849 54.1947 196.9 54.28 195.983 54.28C194.532 54.28 193.241 54.056 192.111 53.608C191.001 53.1813 190.063 52.5627 189.295 51.752C188.527 50.9627 187.94 50.0133 187.535 48.904C187.129 47.7947 186.927 46.5787 186.927 45.256C186.927 44.104 187.108 42.984 187.471 41.896C187.855 40.7867 188.409 39.8053 189.135 38.952C189.839 38.0987 190.713 37.416 191.759 36.904C192.825 36.3707 194.052 36.104 195.439 36.104ZM198.127 43.272C198.041 42.4827 197.753 41.9067 197.263 41.544C196.772 41.1813 196.217 41 195.599 41C194.852 41 194.223 41.2667 193.711 41.8C193.199 42.312 192.964 42.9733 193.007 43.784L198.127 43.272Z" fill="#8BA91F"/>
<defs>
<linearGradient id="paint0_linear_282_1150" x1="244" y1="84" x2="192.292" y2="-66.1989" gradientUnits="userSpaceOnUse">
<stop stop-color="#E9F6B9"/>
<stop offset="1" stop-color="#F1FAD1"/>
</linearGradient>
<linearGradient id="paint1_linear_282_1150" x1="0" y1="0" x2="51.7078" y2="150.199" gradientUnits="userSpaceOnUse">
<stop stop-color="#E9FAAA"/>
<stop offset="0.4" stop-color="#E9FAAA"/>
<stop offset="0.6" stop-color="#F5FDD8"/>
<stop offset="1" stop-color="#F5FDD8"/>
</linearGradient>
</defs>
</svg>
