<svg width="134" height="84" viewBox="0 0 134 84" fill="none" xmlns="http://www.w3.org/2000/svg">
<rect x="5" y="5" width="124" height="74" fill="url(#paint0_linear_282_1148)"/>
<rect x="5" y="5" width="124" height="74" stroke="url(#paint1_linear_282_1148)" stroke-width="10"/>
<path d="M39.48 38.28C39.48 37.7893 39.3627 37.384 39.128 37.064C38.9147 36.7227 38.6267 36.4667 38.264 36.296C37.88 36.1253 37.432 36.0293 36.92 36.008C36.4293 35.9867 35.9173 36.0293 35.384 36.136L35.48 41.256C38.1467 41.128 39.48 40.136 39.48 38.28ZM28.184 33.16C28.1627 32.7333 28.152 32.392 28.152 32.136C28.1733 31.8587 28.2373 31.6347 28.344 31.464C28.4293 31.3147 28.5893 31.1973 28.824 31.112C29.08 31.0053 29.432 30.888 29.88 30.76C30.776 30.5253 31.8 30.344 32.952 30.216C34.1253 30.088 35.32 30.056 36.536 30.12C37.752 30.184 38.936 30.3653 40.088 30.664C41.2613 30.9627 42.3067 31.4107 43.224 32.008C44.1413 32.6053 44.8773 33.3733 45.432 34.312C45.9867 35.2293 46.264 36.36 46.264 37.704C46.264 39.496 45.9653 40.9893 45.368 42.184C44.7707 43.3787 43.9813 44.3387 43 45.064C41.9973 45.7893 40.8453 46.312 39.544 46.632C38.264 46.952 36.9307 47.144 35.544 47.208L35.64 52.52C35.6613 53.0747 35.576 53.448 35.384 53.64C35.2133 53.8533 34.8933 53.96 34.424 53.96H30.072C29.624 53.96 29.3147 53.8533 29.144 53.64C28.9733 53.448 28.8773 53.0747 28.856 52.52L28.184 33.16ZM62.7233 47.496C63.1713 47.496 63.5019 47.5813 63.7153 47.752C63.9286 47.9227 64.0353 48.232 64.0353 48.68V52.744C64.0353 53.192 63.9286 53.5013 63.7153 53.672C63.5019 53.864 63.1713 53.96 62.7233 53.96H49.8273C49.2726 53.96 48.8886 53.832 48.6753 53.576C48.4833 53.3413 48.3766 52.904 48.3553 52.264L48.0033 32.104C47.9819 31.4853 48.0779 31.0587 48.2913 30.824C48.5259 30.568 48.9206 30.44 49.4753 30.44H53.6353C54.1899 30.44 54.5633 30.568 54.7552 30.824C54.9473 31.0587 55.0539 31.4853 55.0753 32.104L55.4593 47.496H62.7233ZM65.9973 53.096C65.6346 52.9893 65.3893 52.84 65.2613 52.648C65.1333 52.4347 65.1439 52.104 65.2933 51.656L71.9173 31.88C72.0879 31.3467 72.2906 30.9733 72.5253 30.76C72.7599 30.5467 73.1333 30.44 73.6453 30.44H78.2853C78.7973 30.44 79.1706 30.5467 79.4053 30.76C79.6399 30.9733 79.8426 31.3467 80.0133 31.88L86.6373 51.656C86.7866 52.104 86.7973 52.4347 86.6693 52.648C86.5413 52.84 86.2959 52.9893 85.9333 53.096L81.9653 54.248C81.3466 54.4187 80.9306 54.1733 80.7173 53.512L79.7253 50.312H72.1733L71.2133 53.512C70.9999 54.1733 70.5839 54.4187 69.9653 54.248L65.9973 53.096ZM75.9493 37.8L74.0293 44.168H77.8693L75.9493 37.8ZM98.1265 30.984C98.3825 30.6213 98.6385 30.3653 98.8945 30.216C99.1505 30.0667 99.4918 30.0773 99.9185 30.248L104.367 32.008C104.751 32.1787 104.975 32.4133 105.039 32.712C105.124 32.9893 105.039 33.3093 104.783 33.672L98.1585 42.696C97.9238 43.0373 97.7318 43.3573 97.5825 43.656C97.4545 43.9547 97.3905 44.36 97.3905 44.872V52.264C97.3905 52.904 97.2838 53.3413 97.0705 53.576C96.8572 53.832 96.4732 53.96 95.9185 53.96H91.6305C91.0758 53.96 90.6918 53.832 90.4785 53.576C90.2865 53.3413 90.1905 52.904 90.1905 52.264L90.0945 44.872C90.0945 44.36 90.0198 43.9547 89.8705 43.656C89.7425 43.3573 89.5612 43.0373 89.3265 42.696L82.7025 33.672C82.4465 33.3093 82.3505 32.9893 82.4145 32.712C82.4998 32.4133 82.7345 32.1787 83.1185 32.008L87.5665 30.248C87.9932 30.0773 88.3345 30.0667 88.5905 30.216C88.8465 30.3653 89.1025 30.6213 89.3585 30.984L93.7105 37.288L98.1265 30.984Z" fill="white"/>
<defs>
<linearGradient id="paint0_linear_282_1148" x1="0" y1="0" x2="75.604" y2="120.606" gradientUnits="userSpaceOnUse">
<stop stop-color="#62B628"/>
<stop offset="1" stop-color="#71C637"/>
</linearGradient>
<linearGradient id="paint1_linear_282_1148" x1="0" y1="0" x2="75.604" y2="120.606" gradientUnits="userSpaceOnUse">
<stop stop-color="#74C63C"/>
<stop offset="0.4" stop-color="#74C63C"/>
<stop offset="0.6" stop-color="#5BB31F"/>
<stop offset="1" stop-color="#5BB31F"/>
</linearGradient>
</defs>
</svg>
